<svg xmlns="http://www.w3.org/2000/svg" width="746" height="232" viewBox="0 0 746 232">
    <g fill="none" fill-rule="evenodd">
        <path stroke="#56A9FF" stroke-dasharray="6" stroke-linecap="round" stroke-linejoin="round" d="M482.036 77.933c-50.069-13.888-96.113-16.832-138.134-8.833-63.031 12-97.708 37.374-92.884 70.496 4.825 33.122 53.043 43.86 41.447 14.849C280.87 125.433 175.411 92.142 58 157.508" opacity=".421"/>
        <g transform="translate(413.008)">
            <ellipse cx="122.254" cy="208.108" fill="#AED2F8" fill-opacity=".642" fill-rule="nonzero" rx="122.254" ry="18.448"/>
            <path fill="#B5D1EE" fill-rule="nonzero" d="M137.965 140.504l-22.098 70.361h2.083l24.994-70.361zM172.759 140.504l22.118 70.361h-2.083l-24.995-70.361zM156.373 140.504l5.198 70.361h-2.083l-8.094-70.361z"/>
            <path fill="#DEEEFF" fill-rule="nonzero" d="M148.637 118.168s-45.803 6.13-45.803 16.722c0 10.593 24.578 10.434 50.604 10.692 28.783.278 47.786-9.482 54.372-30.786 8.63-27.91 2.877-81.629-15.87-83.494-32.373-3.154-43.303 86.866-43.303 86.866z"/>
            <path fill="#323A46" fill-rule="nonzero" d="M57.527 203.01s-8.65 3.51-8.728 6.248c0 .913 5.534.556 9.918-.674.714-.199 2.202-.377 2.241-2.281a7.102 7.102 0 0 0-.872-3.234"/>
            <path fill="#56A9FF" fill-rule="nonzero" d="M147.328 98.668s-50.128 5.535-63.379 15.87c-5.653 4.403-13.25 28.426-19.202 50.385-5.435 20.095-8.331 38.642-8.331 38.642l4.443.813s26.76-37.927 30.39-45.049a53.56 53.56 0 0 0 5.951-32.651s46.914 14.5 68 7.36c12.597-4.266 15.354-21.821 9.046-32.414"/>
            <path stroke="#323A46" stroke-width=".25" d="M59.252 204.041s24.063-34.397 31.481-55.582c3.63-10.474 2.44-22.991 5.594-24.42 3.155-1.428 43.78 4.722 49.434 5.634 5.653.913 20.868 3.233 25.133-11.644"/>
            <path fill="#584EB7" fill-rule="nonzero" d="M165.22 134.037a16.226 16.226 0 0 0 6.13-3.749 69.072 69.072 0 0 0-7.458-20.075 70.837 70.837 0 0 0-6.884-10.493l-9.68-1.052s-50.128 5.535-63.379 15.87c-2.638 1.983-5.693 8.35-8.787 16.722a7.697 7.697 0 0 1 8.172.218c4.94 3.432 9.066 9.264 8.927 19.837 0 2.123 0 4.245-.139 6.368a53.301 53.301 0 0 0 5.078-31.005s46.934 14.5 68.02 7.36z" opacity=".35" style="mix-blend-mode:multiply"/>
            <path fill="#323A46" fill-rule="nonzero" d="M13.985 154.013s-7.836-3.968-9.561-1.825c-.556.694 3.808 4.126 7.934 6.685a2.202 2.202 0 0 0 3.174-.456 3.273 3.273 0 0 0 .615-2.758"/>
            <path fill="#56A9FF" fill-rule="nonzero" d="M158.694 104.818S107.634 85.873 80.3 97.2c-27.335 11.327-66.314 56.813-66.314 56.813a3.75 3.75 0 0 0 2.182 3.293c1.17-.655 41.657-16.822 52.429-25.67a65.283 65.283 0 0 0 15.353-17.138s47.886 28.109 79.209 21.523a25.332 25.332 0 0 0 19.955-18.548"/>
            <path stroke="#323A46" stroke-width=".25" d="M15.532 156.294s36.718-15.87 48.72-25.312c12-9.442 15.413-17.337 19.519-19.281 2.638-1.25 28.406 12.973 48.5 16.782 20.095 3.809 37.552-1.111 41.003-19.103"/>
            <path stroke="#323A46" stroke-width=".25" d="M160.995 111.205s-2.201 5.039-1.428 7.816a11.902 11.902 0 0 0 3.63 5.95"/>
            <path stroke="#323A46" stroke-width=".25" d="M159.389 111.225s-1.726 5.634-.953 8.41c.67 2.35 2.057 4.43 3.968 5.952"/>
            <path fill="#CADFF5" fill-rule="nonzero" d="M111.344 8.788L123.88 74.03l-38.186 9.7-14.818-59.45z"/>
            <path fill="#A0BFE0" fill-rule="nonzero" d="M75.538 26.423l32.83-11.645 10.89 56.277-30.647 7.776z"/>
            <path fill="#CADFF5" fill-rule="nonzero" d="M80.226 34.583l31.445-9.01.536 1.868-31.446 9.01z"/>
            <path fill="#F5CFC0" fill-rule="nonzero" d="M119.457 49.949c0-.178-3.332-1.706-3.61-3.194-.278-1.487-.575-3.114-.575-3.114s-1.627-3.313-.933-3.75c.695-.436 2.976 2.818 2.976 2.818l-.12-3.512-.773-3.967a14.421 14.421 0 0 1 2.916 5.713 51 51 0 0 0 1.666 6.665l6.309 4.721-4.325 1.23-3.53-3.61z"/>
            <path fill="#F49914" fill-rule="nonzero" d="M178.531 40.943c-4.82-.654-9.403 3.967-16.603 13.29a123.305 123.305 0 0 1-10.216 11.645l-28.724-16.901-1.666 2.777s27.454 32.632 34.337 30.827c6.884-1.806 20.432-8.292 27.772-21.146 4.245-7.558 6.229-18.984-4.9-20.492z"/>
            <path fill="#FCB11A" fill-rule="nonzero" d="M184.621 39.674c15.195 13.191 17.853 44.513 8.927 66.195-6.23 14.937-14.045 23.249-22.515 27.771-4.602-10.85-17.02-24.121-28.367-30.667a79.645 79.645 0 0 0-15.433-5.773s18.686-6.11 23.19-22.99c-2.698-7.102-2.54-14.6 4.919-20.75 3.094-2.559 7.24-5.95 8.708-7.22 8.907-7.856 18.33-8.55 20.571-6.566z"/>
            <path fill="#F5CFC0" fill-rule="nonzero" d="M170.696 10.295c-4.86 4.464-6.785 15.017-6.824 16.723a4.8 4.8 0 0 0 4.94 4.463c1.526.096 3.03.416 4.462.952a14.739 14.739 0 0 1 0 5.178c-.535 2.063-4.661 5.653-4.661 5.653a64.073 64.073 0 0 0 9.918-1.031c3.967-1.052 4.84-2.58 4.84-2.58l-2.5-2.975s-.713-5.95.953-7.776c1.666-1.825 5.733-7.082 5.118-11.783-1.19-9.006-9.66-12.854-16.246-6.824z"/>
            <path fill="#F5CFC0" fill-rule="nonzero" d="M166.629 17.635c-.575.278-3.73 3.154-3.71 3.967.02.814 2.877 1.091 2.877 1.091"/>
            <path fill="#FF5B5B" fill-rule="nonzero" d="M178.194 5.237c-2.797-1.13-7.439.178-9.224 1.031a9.184 9.184 0 0 0-4.225 3.65 4.602 4.602 0 0 0-.615 3.055l5.95 1.567c.234.069.482.069.715 0 .258 0 .416-.337.595-.555a4.483 4.483 0 0 1 3.293-1.726 5.951 5.951 0 0 0-1.786 3.71c0 .476 2.698 1.329 3.968 1.983 1.27.655 4.205 3.214 5.415 2.123.714-.655.199-2.877.397-3.849.427-1.582.542-3.233.337-4.86a4.225 4.225 0 0 0-2.916-3.431"/>
            <path fill="#FF5B5B" fill-rule="nonzero" d="M181.07 15.116c-.416.377-.694 1.329-1.011 1.765a12.24 12.24 0 0 0-1.984 3.392c-.097.491.06.998.416 1.35.477.336.437-.536 1.29-.616.853-.08 1.666.615 1.785 2.182 0 .972-1.051 3.809-2.579 3.71a.992.992 0 0 0-.853.396 1.23 1.23 0 0 0 0 1.052c.219.357 1.25 2.638 2.758 2.5.654.336 1.825 0 2.539-.18a11.347 11.347 0 0 0 4.106-1.626 14.6 14.6 0 0 0 6.19-15.87c-1.846-6.129-12.042-15.036-21.405-7.597"/>
            <path fill="#FF5B5B" fill-rule="nonzero" d="M185.097 6.427c-1.15-.476-.615-2.896-.238-3.749A5.058 5.058 0 0 1 189.243 0c3.352 0 6.348 3.967 4.443 7.022-1.448 2.341-3.808 1.984-6.328 1.984"/>
            <path fill="#DEEEFF" fill-rule="nonzero" d="M103.766 22.614l12.854 69.885-30.925-8.768-14.818-59.45z"/>
            <path fill="#B5D1EE" fill-rule="nonzero" d="M101.287 28.406l-24.995.774.833 4.463 25.015-.773zM78.276 37.59l24.617-1.23 8.947 50.128-24.22-6.07z"/>
            <path fill="#DEEEFF" fill-rule="nonzero" d="M91.905 35.147l1.91-.363 9.977 52.4-1.91.363z"/>
            <path fill="#DEEEFF" fill-rule="nonzero" d="M82.575 65.077l.212-1.932L98.838 64.9l-.211 1.933z"/>
            <path fill="#F5CFC0" fill-rule="nonzero" d="M120.528 71.075l-5.594-2.717a26.958 26.958 0 0 0-1.844-6.15 8.986 8.986 0 0 0-2.302-1.369l.258 1.33c-.654.694-3.094.178-3.471-.576-.377-.754-3.511-4.979-3.967-3.53a12.775 12.775 0 0 0 1.329 6.823 11.644 11.644 0 0 0 4.582 3.69c.793.476 8.252 5.653 8.252 5.653"/>
            <path fill="#F49914" fill-rule="nonzero" d="M179.384 48.382a14.798 14.798 0 0 0-15.076 12.358c-1.19 7.161-10.85 25.788-10.85 25.788l-35.25-16.445-1.21 3.968s34.476 30.568 41.399 28.763c6.923-1.805 27.137-20.789 30.707-35.13 1.805-7.221 1.428-17.794-9.72-19.302z"/>
            <path stroke="#323A46" stroke-linecap="round" stroke-width=".5" d="M167.734 18.623c.63 1.555 3.164 0 3.164 0"/>
        </g>
        <g opacity=".3" transform="translate(0 10)">
            <path fill="#56A9FF" d="M741.998 15c-1.315-2.942-1.058-2.684-3.998-4 2.94-1.316 2.683-1.059 3.998-4 1.318 2.941 1.059 2.684 4 4-2.941 1.316-2.682 1.058-4 4zM331.499 110.999c-.823-1.838-.662-1.677-2.499-2.5 1.837-.822 1.676-.66 2.499-2.499.823 1.838.661 1.677 2.5 2.5-1.839.822-1.677.66-2.5 2.499zM2.499 221.999c-.823-1.838-.662-1.677-2.499-2.5 1.837-.822 1.676-.66 2.499-2.499.823 1.838.661 1.677 2.5 2.5-1.839.822-1.677.66-2.5 2.499zM444.499 86.999c-.823-1.838-.662-1.677-2.499-2.5 1.837-.822 1.676-.66 2.499-2.499.823 1.838.661 1.677 2.5 2.5-1.839.822-1.677.66-2.5 2.499zM452.998 8c-1.315-2.942-1.058-2.684-3.998-4 2.94-1.316 2.683-1.059 3.998-4 1.318 2.941 1.059 2.684 4 4-2.941 1.316-2.682 1.058-4 4z"/>
            <circle cx="708" cy="135.5" r="1.5" stroke="#56A9FF"/>
            <circle cx="275" cy="40" r="1" stroke="#56A9FF"/>
            <circle cx="372" cy="178" r="1" stroke="#56A9FF"/>
            <circle cx="213" cy="153" r="1" stroke="#56A9FF"/>
            <circle cx="11.5" cy="82.5" r="1.5" stroke="#56A9FF"/>
        </g>
    </g>
</svg>
