<svg xmlns="http://www.w3.org/2000/svg" xmlns:xlink="http://www.w3.org/1999/xlink" width="412" height="165" viewBox="0 0 412 165">
    <defs>
        <rect id="a" width="412" height="165" rx="4"/>
    </defs>
    <g fill="none" fill-rule="evenodd">
        <mask id="b" fill="#fff">
            <use xlink:href="#a"/>
        </mask>
        <use fill="#56A9FF" fill-opacity=".01" xlink:href="#a"/>
        <g mask="url(#b)">
            <path stroke="#56A9FF" stroke-dasharray="6" stroke-linecap="round" stroke-linejoin="round" d="M274.465 55.368c-35.571-9.867-68.284-11.958-98.138-6.275-44.78 8.524-69.417 26.552-65.99 50.084 3.428 23.531 37.685 31.16 29.447 10.55-8.24-20.613-83.162-44.264-166.578 2.176" opacity=".421"/>
            <g transform="translate(225.424)">
                <ellipse cx="86.856" cy="147.851" fill="#AED2F8" fill-opacity=".642" fill-rule="nonzero" rx="86.856" ry="13.107"/>
                <path fill="#B5D1EE" fill-rule="nonzero" d="M98.018 99.822l-15.7 49.988h1.48l17.757-49.988zM122.737 99.822l15.714 49.988h-1.48l-17.757-49.988zM111.096 99.822l3.693 49.988h-1.48l-5.75-49.988z"/>
                <path fill="#DEEEFF" fill-rule="nonzero" d="M105.6 83.953S73.06 88.308 73.06 95.833c0 7.526 17.461 7.414 35.952 7.597 20.449.197 33.95-6.737 38.629-21.873 6.13-19.829 2.043-57.993-11.275-59.318-23-2.24-30.765 61.714-30.765 61.714z"/>
                <path fill="#323A46" fill-rule="nonzero" d="M40.87 144.23s-6.144 2.494-6.2 4.439c0 .648 3.931.394 7.046-.48.507-.14 1.564-.267 1.592-1.62a5.045 5.045 0 0 0-.62-2.297"/>
                <path fill="#56A9FF" fill-rule="nonzero" d="M104.67 70.1S69.056 74.03 59.642 81.373C55.626 84.503 50.228 101.569 46 117.17c-3.861 14.276-5.919 27.453-5.919 27.453l3.157.578s19.011-26.946 21.59-32.006A38.052 38.052 0 0 0 69.057 90s33.33 10.302 48.312 5.228c8.949-3.03 10.908-15.502 6.426-23.028"/>
                <path stroke="#323A46" stroke-width=".25" d="M42.096 144.962s17.095-24.437 22.366-39.489c2.58-7.441 1.734-16.334 3.974-17.348 2.241-1.015 31.104 3.354 35.12 4.002 4.017.648 14.827 2.297 17.857-8.273"/>
                <path fill="#584EB7" fill-rule="nonzero" d="M117.382 95.227a11.528 11.528 0 0 0 4.355-2.663 49.072 49.072 0 0 0-5.3-14.262 50.327 50.327 0 0 0-4.89-7.456l-6.877-.747s-35.614 3.932-45.028 11.275c-1.874 1.41-4.044 5.933-6.243 11.88a5.468 5.468 0 0 1 5.806.155c3.51 2.439 6.44 6.582 6.342 14.094 0 1.508 0 3.016-.098 4.524a37.868 37.868 0 0 0 3.607-22.028s33.345 10.302 48.326 5.228z" opacity=".35" style="mix-blend-mode:multiply"/>
                <path fill="#323A46" fill-rule="nonzero" d="M9.936 109.42s-5.567-2.82-6.793-1.297c-.395.493 2.706 2.931 5.637 4.75a1.564 1.564 0 0 0 2.255-.325 2.325 2.325 0 0 0 .437-1.959"/>
                <path fill="#56A9FF" fill-rule="nonzero" d="M112.745 74.468S76.47 61.01 57.05 69.056C37.63 77.104 9.936 109.42 9.936 109.42a2.664 2.664 0 0 0 1.55 2.34c.831-.465 29.596-11.951 37.248-18.237a46.38 46.38 0 0 0 10.908-12.176s34.021 19.97 56.274 15.29a17.997 17.997 0 0 0 14.178-13.176"/>
                <path stroke="#323A46" stroke-width=".25" d="M11.035 111.04S37.12 99.765 45.648 93.057c8.526-6.708 10.95-12.317 13.867-13.698 1.875-.888 20.182 9.217 34.458 11.922 14.277 2.706 26.679-.789 29.13-13.571"/>
                <path stroke="#323A46" stroke-width=".25" d="M114.38 79.006s-1.564 3.58-1.015 5.553a8.456 8.456 0 0 0 2.58 4.228"/>
                <path stroke="#323A46" stroke-width=".25" d="M113.239 79.02s-1.227 4.003-.677 5.976a8.315 8.315 0 0 0 2.819 4.228"/>
                <path fill="#CADFF5" fill-rule="nonzero" d="M79.105 6.243l8.907 46.353-27.13 6.891L50.355 17.25z"/>
                <path fill="#A0BFE0" fill-rule="nonzero" d="M53.667 18.772L76.99 10.5l7.737 39.983-21.774 5.524z"/>
                <path fill="#CADFF5" fill-rule="nonzero" d="M56.997 24.57l22.34-6.402.38 1.328-22.34 6.401z"/>
                <path fill="#F5CFC0" fill-rule="nonzero" d="M84.869 35.487c0-.127-2.368-1.212-2.565-2.27-.197-1.056-.409-2.212-.409-2.212s-1.155-2.354-.662-2.664c.493-.31 2.114 2.002 2.114 2.002l-.085-2.495-.55-2.819a10.246 10.246 0 0 1 2.072 4.06 36.234 36.234 0 0 0 1.184 4.735l4.482 3.354-3.072.874-2.509-2.565z"/>
                <path fill="#F49914" fill-rule="nonzero" d="M126.838 29.088c-3.424-.465-6.68 2.819-11.796 9.443a87.603 87.603 0 0 1-7.257 8.272L87.378 34.796l-1.184 1.973s19.505 23.183 24.395 21.9c4.89-1.282 14.516-5.89 19.73-15.022 3.016-5.37 4.426-13.488-3.48-14.559z"/>
                <path fill="#FCB11A" fill-rule="nonzero" d="M131.165 28.186c10.795 9.372 12.684 31.625 6.342 47.03-4.425 10.611-9.978 16.516-15.996 19.73-3.27-7.71-12.092-17.138-20.153-21.788a56.584 56.584 0 0 0-10.964-4.102s13.275-4.34 16.474-16.333c-1.916-5.046-1.803-10.373 3.496-14.742 2.198-1.818 5.144-4.228 6.186-5.13 6.328-5.58 13.023-6.074 14.615-4.665z"/>
                <path fill="#F5CFC0" fill-rule="nonzero" d="M121.272 7.314c-3.453 3.171-4.82 10.669-4.848 11.88a3.41 3.41 0 0 0 3.509 3.172 11.02 11.02 0 0 1 3.17.676 10.471 10.471 0 0 1 0 3.679c-.38 1.465-3.311 4.016-3.311 4.016a45.52 45.52 0 0 0 7.046-.733c2.82-.747 3.44-1.832 3.44-1.832l-1.777-2.114s-.507-4.228.677-5.524c1.184-1.297 4.073-5.032 3.636-8.372-.846-6.398-6.863-9.132-11.542-4.848z"/>
                <path fill="#F5CFC0" fill-rule="nonzero" d="M118.383 12.529c-.41.197-2.65 2.24-2.636 2.818.014.578 2.044.776 2.044.776"/>
                <path fill="#FF5B5B" fill-rule="nonzero" d="M126.599 3.72c-1.987-.803-5.285.127-6.553.733a6.525 6.525 0 0 0-3.002 2.594 3.27 3.27 0 0 0-.437 2.17l4.228 1.113a.902.902 0 0 0 .507 0c.183 0 .296-.24.423-.394a3.185 3.185 0 0 1 2.34-1.226 4.228 4.228 0 0 0-1.269 2.635c0 .338 1.917.944 2.819 1.41.902.464 2.987 2.282 3.847 1.507.507-.465.141-2.043.282-2.734a8.963 8.963 0 0 0 .24-3.453 3.002 3.002 0 0 0-2.072-2.438"/>
                <path fill="#FF5B5B" fill-rule="nonzero" d="M128.642 10.739c-.296.268-.493.944-.718 1.254a8.695 8.695 0 0 0-1.41 2.41c-.069.35.043.71.296.959.339.24.31-.381.916-.437.606-.057 1.184.437 1.269 1.55 0 .69-.747 2.706-1.832 2.635a.705.705 0 0 0-.606.282.874.874 0 0 0 0 .747c.155.254.887 1.875 1.959 1.776.465.24 1.296 0 1.803-.127a8.061 8.061 0 0 0 2.918-1.156 10.373 10.373 0 0 0 4.397-11.274c-1.31-4.355-8.555-10.683-15.207-5.398"/>
                <path fill="#FF5B5B" fill-rule="nonzero" d="M131.503 4.566c-.817-.338-.437-2.057-.169-2.663A3.594 3.594 0 0 1 134.45 0c2.382 0 4.51 2.819 3.157 4.989-1.03 1.663-2.706 1.41-4.496 1.41"/>
                <path fill="#DEEEFF" fill-rule="nonzero" d="M73.721 16.066l9.133 49.65-21.972-6.229L50.355 17.25z"/>
                <path fill="#B5D1EE" fill-rule="nonzero" d="M71.96 20.181l-17.758.55.592 3.171 17.772-.55zM55.612 26.707l17.49-.874 6.355 35.613-17.208-4.312z"/>
                <path fill="#DEEEFF" fill-rule="nonzero" d="M65.295 24.97l1.356-.258L73.74 61.94l-1.356.258z"/>
                <path fill="#DEEEFF" fill-rule="nonzero" d="M58.666 46.235l.15-1.373 11.404 1.247-.15 1.373z"/>
                <path fill="#F5CFC0" fill-rule="nonzero" d="M85.63 50.496l-3.974-1.931a19.153 19.153 0 0 0-1.31-4.369 6.384 6.384 0 0 0-1.636-.972l.184.944c-.466.493-2.199.127-2.467-.409-.268-.535-2.494-3.537-2.818-2.508a9.076 9.076 0 0 0 .944 4.848 8.273 8.273 0 0 0 3.255 2.621c.564.338 5.863 4.017 5.863 4.017"/>
                <path fill="#F49914" fill-rule="nonzero" d="M127.444 34.373a10.513 10.513 0 0 0-10.71 8.78c-.846 5.088-7.71 18.321-7.71 18.321L83.982 49.791l-.86 2.819s24.494 21.717 29.413 20.435c4.918-1.283 19.28-14.77 21.816-24.96 1.283-5.129 1.015-12.64-6.906-13.712z"/>
                <path stroke="#323A46" stroke-linecap="round" stroke-width=".5" d="M119.167 13.23c.448 1.105 2.249 0 2.249 0"/>
            </g>
            <g opacity=".3" transform="translate(-68 7.105)">
                <path fill="#56A9FF" d="M235.515 78.86c-.584-1.306-.47-1.192-1.775-1.776 1.305-.584 1.191-.47 1.775-1.776.585 1.306.47 1.192 1.776 1.776-1.306.584-1.191.47-1.776 1.776zM315.797 61.809c-.585-1.306-.47-1.192-1.776-1.776 1.306-.584 1.191-.47 1.776-1.776.584 1.306.47 1.192 1.775 1.776-1.305.584-1.19.47-1.775 1.776zM321.835 5.683c-.934-2.09-.751-1.907-2.84-2.841 2.089-.935 1.906-.752 2.84-2.842.936 2.09.752 1.907 2.842 2.842-2.09.934-1.906.752-2.842 2.841z"/>
                <circle cx="195.375" cy="28.418" r="1" stroke="#56A9FF"/>
                <circle cx="264.29" cy="126.461" r="1" stroke="#56A9FF"/>
                <circle cx="151.327" cy="108.7" r="1" stroke="#56A9FF"/>
            </g>
        </g>
    </g>
</svg>
