<svg xmlns="http://www.w3.org/2000/svg" width="28" height="28" viewBox="0 0 28 28">
    <path fill="#CED4DA" fill-rule="nonzero" d="M13.343 27.973c-1.933-.092-3.73-.543-5.39-1.354a14.327 14.327 0 0 1-4.31-3.2A13.875 13.875 0 0 1 .85 18.822a13.702 13.702 0 0 1-.834-5.485C.108 11.405.56 9.61 1.37 7.95A14.069 14.069 0 0 1 9.183.852c1.734-.648 3.558-.926 5.474-.835 1.933.091 3.73.542 5.39 1.354a14.327 14.327 0 0 1 4.31 3.2 13.906 13.906 0 0 1 2.791 4.582c.648 1.733.926 3.565.835 5.498-.073 1.879-.497 3.63-1.272 5.252a14.388 14.388 0 0 1-3.051 4.24 13.97 13.97 0 0 1-4.379 2.831A13.729 13.729 0 0 1 14 28h-.328c-.11 0-.22-.01-.329-.027zm1.779-10.614c.255.766.616 1.414 1.08 1.942a3.795 3.795 0 0 0 1.711 1.122c1.095.365 1.92.77 2.477 1.217.556.447.898 1.145 1.026 2.093a12.349 12.349 0 0 1-3.708 1.956c-1.36.446-2.787.624-4.283.533a11.747 11.747 0 0 1-3.68-.739 12.737 12.737 0 0 1-3.188-1.75c.128-.948.474-1.646 1.04-2.093.565-.447 1.395-.852 2.49-1.217a3.795 3.795 0 0 0 1.71-1.122c.465-.528.826-1.176 1.081-1.942.182.055.365.091.547.11.183.018.374.027.575.027.2 0 .392-.009.575-.027a2.91 2.91 0 0 0 .547-.11zM14 6.992c.967 0 1.792.342 2.476 1.026a3.373 3.373 0 0 1 1.027 2.475v1.751c0 .967-.342 1.792-1.027 2.476A3.375 3.375 0 0 1 14 15.745a3.375 3.375 0 0 1-2.476-1.025 3.373 3.373 0 0 1-1.027-2.476v-1.75c0-.967.342-1.792 1.027-2.476A3.375 3.375 0 0 1 14 6.992zm.575-5.224a11.58 11.58 0 0 0-4.79.724 12.414 12.414 0 0 0-4.008 2.449A12.686 12.686 0 0 0 2.96 8.7c-.721 1.45-1.127 3.023-1.218 4.72a12.126 12.126 0 0 0 .793 4.882 12.584 12.584 0 0 0 2.545 4.062c.365-1.076.967-1.87 1.806-2.38.84-.51 1.724-.92 2.655-1.23.492-.165.87-.443 1.135-.835.265-.392.452-.798.561-1.217a5.196 5.196 0 0 1-1.806-1.86 5.075 5.075 0 0 1-.684-2.599v-1.75c0-1.441.515-2.677 1.546-3.707 1.03-1.03 2.267-1.546 3.708-1.546 1.441 0 2.677.516 3.708 1.546 1.03 1.03 1.546 2.266 1.546 3.706v1.751c0 .948-.228 1.815-.684 2.599a5.196 5.196 0 0 1-1.806 1.86c.11.42.296.825.56 1.217.265.392.644.67 1.136.834.93.31 1.816.72 2.655 1.231.839.51 1.44 1.313 1.806 2.407a12.863 12.863 0 0 0 2.34-3.556 11.4 11.4 0 0 0 .97-4.267 11.656 11.656 0 0 0-.724-4.8 12.374 12.374 0 0 0-2.45-4.021 12.495 12.495 0 0 0-3.762-2.804c-1.45-.711-3.024-1.104-4.72-1.176z"/>
</svg>
