<svg xmlns="http://www.w3.org/2000/svg" width="24" height="24" viewBox="0 0 24 24">
    <g fill="none" fill-rule="evenodd">
        <path fill="#FFF" fill-opacity=".01" d="M0 0h24v24H0z"/>
        <path fill="#10C469" fill-rule="nonzero" d="M12 2c1.38 0 2.676.264 3.887.791a10.202 10.202 0 0 1 3.174 2.148 10.202 10.202 0 0 1 2.148 3.174A9.628 9.628 0 0 1 22 12c0 1.38-.264 2.676-.791 3.887a10.202 10.202 0 0 1-2.148 3.174 10.202 10.202 0 0 1-3.174 2.148A9.628 9.628 0 0 1 12 22a9.628 9.628 0 0 1-3.887-.791 10.202 10.202 0 0 1-3.174-2.148 10.202 10.202 0 0 1-2.148-3.174A9.628 9.628 0 0 1 2 12c0-1.38.264-2.676.791-3.887A10.202 10.202 0 0 1 4.939 4.94a10.202 10.202 0 0 1 3.174-2.148A9.628 9.628 0 0 1 12 2zm3.725 8.5a.652.652 0 0 0-.45.176l-3.3 3.32-3.3-3.32a.652.652 0 0 0-.45-.176.652.652 0 0 0-.45.176.652.652 0 0 0-.175.449c0 .17.059.319.176.45l3.75 3.75a.89.89 0 0 0 .215.126.605.605 0 0 0 .234.049.605.605 0 0 0 .234-.049.89.89 0 0 0 .215-.127l3.75-3.75a.652.652 0 0 0 .176-.449.652.652 0 0 0-.176-.45.652.652 0 0 0-.449-.175z"/>
    </g>
</svg>
