<svg xmlns="http://www.w3.org/2000/svg" width="31" height="25" viewBox="0 0 31 25">
    <path fill="#ABD0F8" fill-rule="nonzero" d="M14.824 24.53L.387 13.188a.788.788 0 0 1-.29-.354C.032 12.683 0 12.532 0 12.38c0-.15.032-.3.097-.45a.788.788 0 0 1 .29-.355L14.824.232a.95.95 0 0 1 .532-.226 1 1 0 0 1 .983.484c.107.172.161.354.161.548v6.187h13.406c.28 0 .521.102.725.306a.991.991 0 0 1 .306.725v8.25c0 .28-.102.521-.306.726a.991.991 0 0 1-.725.306H16.5v6.187c0 .194-.054.376-.161.548-.108.172-.247.3-.42.387a5.062 5.062 0 0 1-.209.064.876.876 0 0 1-.241.032.964.964 0 0 1-.645-.226zm-.386-21.365L2.707 12.38l11.73 9.217v-5.092c0-.279.103-.52.307-.725a.991.991 0 0 1 .725-.306h13.406V9.288H15.469a.991.991 0 0 1-.725-.306.991.991 0 0 1-.306-.726V3.165z"/>
</svg>
