<svg xmlns="http://www.w3.org/2000/svg" width="24" height="24" viewBox="0 0 24 24">
    <g>
        <path d="M14 10a.48.48 0 0 1 .352.148.48.48 0 0 1 .148.352v2a.48.48 0 0 1-.148.352A.48.48 0 0 1 14 13h-4a.48.48 0 0 1-.352-.148.48.48 0 0 1-.148-.352v-2a.48.48 0 0 1 .148-.352A.48.48 0 0 1 10 10h4zm-.5 2v-1h-3v1h3zm6 4a.48.48 0 0 1 .352.148.48.48 0 0 1 .148.352v3a.48.48 0 0 1-.148.352.48.48 0 0 1-.352.148h-15a.48.48 0 0 1-.352-.148A.48.48 0 0 1 4 19.5v-3a.48.48 0 0 1 .148-.352A.48.48 0 0 1 4.5 16h1v-2.5c0-.052.008-.102.023-.148.016-.047.034-.092.055-.133L7.5 10.344V8.5a.48.48 0 0 1 .148-.352A.48.48 0 0 1 8 8h5.5V7H12a.48.48 0 0 1-.352-.148.48.48 0 0 1-.148-.352v-2a.48.48 0 0 1 .148-.352A.48.48 0 0 1 12 4h4a.48.48 0 0 1 .352.148.48.48 0 0 1 .148.352v2a.48.48 0 0 1-.148.352A.48.48 0 0 1 16 7h-1.5v1H16a.48.48 0 0 1 .352.148.48.48 0 0 1 .148.352v1.844l1.922 2.875c.02.041.039.086.055.133a.466.466 0 0 1 .023.148V16h1zm-7-11v1h3V5h-3zm-6 8.656V16h11v-2.344l-1.922-2.875a1.012 1.012 0 0 1-.055-.133.466.466 0 0 1-.023-.148V9h-7v1.5a.466.466 0 0 1-.023.148 1.012 1.012 0 0 1-.055.133L6.5 13.656zM19 19v-2H5v2h14z"/>
    </g>
</svg>
