<svg xmlns="http://www.w3.org/2000/svg" width="24" height="24" viewBox="0 0 24 24">
    <g fill="none" fill-rule="evenodd">
        <path fill="#FFF" fill-opacity=".01" d="M0 0h24v24H0z"/>
        <path fill="#51A7FF" fill-rule="nonzero" d="M8.281 17.719l-4-4A1.043 1.043 0 0 1 4 13c0-.27.094-.51.281-.719C4.49 12.094 4.73 12 5 12c.27 0 .51.094.719.281L9 15.594l9.281-9.313C18.49 6.094 18.73 6 19 6c.27 0 .51.094.719.281.187.209.281.448.281.719 0 .27-.094.51-.281.719l-10 10a1.424 1.424 0 0 1-.344.203A.968.968 0 0 1 9 18a.968.968 0 0 1-.375-.078 1.424 1.424 0 0 1-.344-.203z"/>
    </g>
</svg>
