<svg xmlns="http://www.w3.org/2000/svg" width="24" height="24" viewBox="0 0 24 24">
    <path fill="#10C469" fill-rule="nonzero" d="M15.14 9.14A.521.521 0 0 1 15.5 9c.135 0 .255.047.36.14.093.105.14.225.14.36a.521.521 0 0 1-.14.36l-5 5a.712.712 0 0 1-.172.1.484.484 0 0 1-.376 0 .712.712 0 0 1-.171-.1l-2-2A.521.521 0 0 1 8 12.5c0-.135.047-.255.14-.36A.521.521 0 0 1 8.5 12c.135 0 .255.047.36.14l1.64 1.657 4.64-4.656zM12 4c1.104 0 2.14.21 3.11.633a8.161 8.161 0 0 1 2.538 1.719 8.161 8.161 0 0 1 1.72 2.539c.421.968.632 2.005.632 3.109s-.21 2.14-.633 3.11a8.161 8.161 0 0 1-1.719 2.538 8.161 8.161 0 0 1-2.539 1.72A7.702 7.702 0 0 1 12 20c-1.104 0-2.14-.21-3.11-.633a8.161 8.161 0 0 1-2.538-1.719 8.161 8.161 0 0 1-1.72-2.539A7.702 7.702 0 0 1 4 12c0-1.104.21-2.14.633-3.11a8.161 8.161 0 0 1 1.719-2.538 8.161 8.161 0 0 1 2.539-1.72A7.702 7.702 0 0 1 12 4zm0 15c.969 0 1.878-.185 2.727-.555a7.131 7.131 0 0 0 2.218-1.5c.63-.63 1.13-1.37 1.5-2.218.37-.85.555-1.758.555-2.727 0-.969-.185-1.878-.555-2.727a7.131 7.131 0 0 0-1.5-2.218 7.131 7.131 0 0 0-2.218-1.5A6.753 6.753 0 0 0 12 5c-.969 0-1.878.185-2.727.555-.849.37-1.588.87-2.218 1.5-.63.63-1.13 1.37-1.5 2.218A6.753 6.753 0 0 0 5 12c0 .969.185 1.878.555 2.727.37.849.87 1.588 1.5 2.218.63.63 1.37 1.13 2.218 1.5.85.37 1.758.555 2.727.555z"/>
</svg>
