<svg width="24" height="24" viewBox="0 0 24 24" version="1.1" xmlns="http://www.w3.org/2000/svg" xmlns:xlink="http://www.w3.org/1999/xlink">
    <g stroke="none" stroke-width="1" fill="none" fill-rule="evenodd">
        <g fill="#56A9FF" fill-rule="nonzero">
            <path d="M5.0625,19.5 L9.0625,19 C9.07291667,19 9.0859375,18.9973958 9.1015625,18.9921875 C9.1171875,18.9869792 9.13020833,18.9791667 9.140625,18.96875 L9.171875,18.96875 L9.171875,18.96875 C9.18229167,18.96875 9.19270833,18.9635417 9.203125,18.953125 C9.234375,18.9427083 9.26302083,18.9296875 9.2890625,18.9140625 C9.31510417,18.8984375 9.33854167,18.8802083 9.359375,18.859375 L19.359375,8.859375 C19.453125,8.75520833 19.5,8.63541667 19.5,8.5 C19.5,8.36458333 19.453125,8.24479167 19.359375,8.140625 L15.859375,4.640625 C15.7552083,4.546875 15.6354167,4.5 15.5,4.5 C15.3645833,4.5 15.2447917,4.546875 15.140625,4.640625 L5.140625,14.640625 C5.11979167,14.6614583 5.1015625,14.6848958 5.0859375,14.7109375 C5.0703125,14.7369792 5.05729167,14.765625 5.046875,14.796875 C5.046875,14.8072917 5.04427083,14.8177083 5.0390625,14.828125 C5.03385417,14.8385417 5.03125,14.8489583 5.03125,14.859375 C5.02083333,14.8697917 5.01302083,14.8828125 5.0078125,14.8984375 C5.00260417,14.9140625 5,14.9270833 5,14.9375 L4.5,18.9375 C4.48958333,19.0104167 4.49739583,19.0833333 4.5234375,19.15625 C4.54947917,19.2291667 4.58854167,19.296875 4.640625,19.359375 C4.69270833,19.4010417 4.75,19.4348958 4.8125,19.4609375 C4.875,19.4869792 4.9375,19.5 5,19.5 L5.0625,19.5 L5.0625,19.5 Z M17,9.796875 L14.203125,7 L15.5,5.703125 L18.296875,8.5 L17,9.796875 Z M7.25,16.046875 L6.203125,15 L13.5,7.703125 L14.546875,8.75 L7.25,16.046875 Z M9,17.796875 L7.953125,16.75 L15.25,9.453125 L16.296875,10.5 L9,17.796875 Z M5.578125,18.421875 L5.875,16.078125 L7.921875,18.125 L5.578125,18.421875 Z"></path>
        </g>
    </g>
</svg>