<svg xmlns="http://www.w3.org/2000/svg" width="24" height="24" viewBox="0 0 24 24">
    <g fill="none" fill-rule="evenodd">
        <path fill="#FFF" fill-opacity=".01" d="M0 0h24v24H0z"/>
        <path fill="#FF5B5B" d="M12 4.5a7.22 7.22 0 0 1 2.915.593 7.651 7.651 0 0 1 2.38 1.612 7.651 7.651 0 0 1 1.612 2.38A7.22 7.22 0 0 1 19.5 12a7.22 7.22 0 0 1-.593 2.915 7.651 7.651 0 0 1-1.612 2.38 7.651 7.651 0 0 1-2.38 1.612A7.22 7.22 0 0 1 12 19.5a7.22 7.22 0 0 1-2.915-.593 7.651 7.651 0 0 1-2.38-1.612 7.651 7.651 0 0 1-1.612-2.38A7.22 7.22 0 0 1 4.5 12a7.22 7.22 0 0 1 .593-2.915 7.651 7.651 0 0 1 1.612-2.38 7.651 7.651 0 0 1 2.38-1.612A7.22 7.22 0 0 1 12 4.5zm2.32 4.714a.45.45 0 0 0-.331.134L12 11.338l-1.989-1.99a.45.45 0 0 0-.331-.134.45.45 0 0 0-.332.134.45.45 0 0 0-.134.332.45.45 0 0 0 .134.331L11.338 12l-1.99 1.989a.45.45 0 0 0-.134.331.45.45 0 0 0 .134.332c.09.09.2.134.332.134a.45.45 0 0 0 .331-.134L12 12.662l1.989 1.99c.09.09.2.134.331.134a.45.45 0 0 0 .332-.134.45.45 0 0 0 .134-.332.45.45 0 0 0-.134-.331L12.662 12l1.99-1.989a.45.45 0 0 0 .134-.331.45.45 0 0 0-.134-.332.45.45 0 0 0-.332-.134z"/>
    </g>
</svg>
