<svg xmlns="http://www.w3.org/2000/svg" width="28" height="28" viewBox="0 0 28 28">
    <g fill="none" fill-rule="evenodd">
        <path fill="#56A9FF" fill-opacity=".01" d="M0 0h28v28H0z"/>
        <path fill="#FFF" fill-rule="nonzero" d="M21.86 11.14l.054.087.055.085a.59.59 0 0 1 0 .376c-.021.03-.04.06-.055.085a2.159 2.159 0 0 1-.055.086l-4 4a.712.712 0 0 1-.172.102.484.484 0 0 1-.375 0 .712.712 0 0 1-.171-.102A.521.521 0 0 1 17 15.5c0-.135.047-.255.14-.36L20.298 12H11.5a3.513 3.513 0 0 0-2.477 1.023A3.513 3.513 0 0 0 8 15.5v5a.48.48 0 0 1-.148.352A.48.48 0 0 1 7.5 21a.48.48 0 0 1-.352-.148A.48.48 0 0 1 7 20.5v-5c0-.625.117-1.208.352-1.75a4.567 4.567 0 0 1 2.398-2.398A4.359 4.359 0 0 1 11.5 11h8.797L17.14 7.86A.521.521 0 0 1 17 7.5c0-.135.047-.255.14-.36A.521.521 0 0 1 17.5 7c.135 0 .255.047.36.14l4 4z"/>
    </g>
</svg>
