<svg xmlns="http://www.w3.org/2000/svg" width="24" height="24" viewBox="0 0 24 24">
    <g>
        <path d="M18.36 11.64l.054.087.055.085a.59.59 0 0 1 0 .376c-.021.03-.04.06-.055.085a2.159 2.159 0 0 1-.055.086l-3.5 3.5a.712.712 0 0 1-.171.102.484.484 0 0 1-.376 0 .712.712 0 0 1-.171-.102A.521.521 0 0 1 14 15.5c0-.135.047-.255.14-.36l2.657-2.64H9a.48.48 0 0 1-.352-.148A.48.48 0 0 1 8.5 12a.48.48 0 0 1 .148-.352A.48.48 0 0 1 9 11.5h7.797L14.14 8.86A.521.521 0 0 1 14 8.5c0-.135.047-.255.14-.36A.521.521 0 0 1 14.5 8c.135 0 .255.047.36.14l3.5 3.5zM6.5 20a.48.48 0 0 1-.352-.148A.48.48 0 0 1 6 19.5v-15a.48.48 0 0 1 .148-.352A.48.48 0 0 1 6.5 4h10a.48.48 0 0 1 .352.148A.48.48 0 0 1 17 4.5V7a.48.48 0 0 1-.148.352.48.48 0 0 1-.352.148.48.48 0 0 1-.352-.148A.48.48 0 0 1 16 7V5H7v14h9v-2a.48.48 0 0 1 .148-.352.48.48 0 0 1 .352-.148.48.48 0 0 1 .352.148A.48.48 0 0 1 17 17v2.5a.48.48 0 0 1-.148.352.48.48 0 0 1-.352.148h-10z"/>
    </g>
</svg>
