<svg xmlns="http://www.w3.org/2000/svg" width="24" height="24" viewBox="0 0 24 24">
    <g>
        <path d="M19.5 7.5c.146 0 .266.047.36.14.093.094.14.214.14.36v10.5a.487.487 0 0 1-.14.36.487.487 0 0 1-.36.14h-15a.487.487 0 0 1-.36-.14.487.487 0 0 1-.14-.36V8c0-.146.047-.266.14-.36a.487.487 0 0 1 .36-.14H9v-2c0-.146.047-.266.14-.36A.487.487 0 0 1 9.5 5h5c.146 0 .266.047.36.14.093.094.14.214.14.36v2h4.5zm-3.5 1H8V18h8V8.5zM10 6v1.5h4V6h-4zM5 8.5V18h2V8.5H5zM19 18V8.5h-2V18h2z"/>
    </g>
</svg>
