<svg xmlns="http://www.w3.org/2000/svg" width="18" height="18" viewBox="0 0 18 18">
    <g fill="#FFF">
        <path d="M1.063 11.566a.54.54 0 0 1-.396-.167.54.54 0 0 1-.167-.395v-4.5a.54.54 0 0 1 .167-.396.54.54 0 0 1 .395-.167h7.313V2.566c0-.105.03-.205.088-.299a.546.546 0 0 1 .536-.264.518.518 0 0 1 .29.124l7.875 6.187a.43.43 0 0 1 .158.193.62.62 0 0 1 .053.247.62.62 0 0 1-.053.246.43.43 0 0 1-.158.193L9.29 15.38a.526.526 0 0 1-.351.124.478.478 0 0 1-.132-.018 2.761 2.761 0 0 1-.115-.035.564.564 0 0 1-.228-.211.554.554 0 0 1-.088-.299v-3.375H1.062zm.562-4.5v3.375h7.313a.54.54 0 0 1 .395.167.54.54 0 0 1 .167.396v2.777l6.398-5.027L9.5 3.726v2.778a.54.54 0 0 1-.167.395.54.54 0 0 1-.396.167H1.625z"/>
    </g>
</svg>
