<svg xmlns="http://www.w3.org/2000/svg" width="24" height="24" viewBox="0 0 24 24">
    <g fill="none" fill-rule="evenodd">
        <path fill="#FFF" fill-opacity=".01" d="M0 0h24v24H0z"/>
        <path fill="#10C469" fill-rule="nonzero" d="M12 2c1.38 0 2.676.264 3.887.791a10.202 10.202 0 0 1 3.174 2.148 10.202 10.202 0 0 1 2.148 3.174A9.628 9.628 0 0 1 22 12c0 1.38-.264 2.676-.791 3.887a10.202 10.202 0 0 1-2.148 3.174 10.202 10.202 0 0 1-3.174 2.148A9.628 9.628 0 0 1 12 22a9.628 9.628 0 0 1-3.887-.791 10.202 10.202 0 0 1-3.174-2.148 10.202 10.202 0 0 1-2.148-3.174A9.628 9.628 0 0 1 2 12c0-1.38.264-2.676.791-3.887A10.202 10.202 0 0 1 4.939 4.94a10.202 10.202 0 0 1 3.174-2.148A9.628 9.628 0 0 1 12 2zm0 5a.6.6 0 0 0-.44.186.6.6 0 0 0-.185.439v3.75h-3.75a.6.6 0 0 0-.44.186A.6.6 0 0 0 7 12a.6.6 0 0 0 .186.44.6.6 0 0 0 .439.185h3.75v3.75a.6.6 0 0 0 .186.44A.6.6 0 0 0 12 17a.6.6 0 0 0 .44-.186.6.6 0 0 0 .185-.439v-3.75h3.75a.6.6 0 0 0 .44-.186A.6.6 0 0 0 17 12a.6.6 0 0 0-.186-.44.6.6 0 0 0-.439-.185h-3.75v-3.75a.6.6 0 0 0-.186-.44A.6.6 0 0 0 12 7z"/>
    </g>
</svg>
