<svg xmlns="http://www.w3.org/2000/svg" width="28" height="28" viewBox="0 0 28 28">
    <g fill="none" fill-rule="evenodd">
        <path fill="#56A9FF" fill-opacity=".01" d="M0 0h28v28H0z"/>
        <path fill="#FFF" fill-rule="nonzero" d="M12.5 19a6.37 6.37 0 0 1-2.531-.508 6.523 6.523 0 0 1-2.07-1.39 6.523 6.523 0 0 1-1.391-2.07A6.37 6.37 0 0 1 6 12.5c0-.896.17-1.74.508-2.531a6.523 6.523 0 0 1 1.39-2.07 6.523 6.523 0 0 1 2.07-1.391A6.37 6.37 0 0 1 12.5 6c.896 0 1.74.17 2.531.508a6.523 6.523 0 0 1 2.07 1.39 6.523 6.523 0 0 1 1.391 2.07A6.37 6.37 0 0 1 19 12.5a6.307 6.307 0 0 1-.844 3.188l3.485 3.468c.093.104.14.224.14.36 0 .135-.047.25-.14.343l-1.782 1.782a.477.477 0 0 1-.156.101.484.484 0 0 1-.383 0 .777.777 0 0 1-.164-.101l-3.468-3.485A6.307 6.307 0 0 1 12.5 19zm8.078.516l-2.984-2.985a6.425 6.425 0 0 1-1.063 1.063l2.985 2.984 1.062-1.062zM12.5 7c-.76 0-1.474.143-2.14.43-.667.286-1.25.68-1.75 1.18-.5.5-.894 1.083-1.18 1.75A5.364 5.364 0 0 0 7 12.5c0 .76.143 1.474.43 2.14.286.667.68 1.25 1.18 1.75.5.5 1.083.894 1.75 1.18.666.287 1.38.43 2.14.43.76 0 1.474-.143 2.14-.43a5.545 5.545 0 0 0 1.75-1.18c.5-.5.894-1.083 1.18-1.75.287-.666.43-1.38.43-2.14 0-.76-.143-1.474-.43-2.14a5.545 5.545 0 0 0-1.18-1.75c-.5-.5-1.083-.894-1.75-1.18A5.364 5.364 0 0 0 12.5 7z"/>
    </g>
</svg>
