<svg xmlns="http://www.w3.org/2000/svg" width="24" height="24" viewBox="0 0 24 24">
    <g>
        <path d="M10.5 12.5h3c.146 0 .266.047.36.14.093.094.14.214.14.36v6a.487.487 0 0 1-.14.36.487.487 0 0 1-.36.14h-3a.487.487 0 0 1-.36-.14A.487.487 0 0 1 10 19v-6c0-.146.047-.266.14-.36a.487.487 0 0 1 .36-.14zm2.5 6v-5h-2v5h2zM5 16c0-.146.047-.266.14-.36a.487.487 0 0 1 .36-.14h3c.146 0 .266.047.36.14.093.094.14.214.14.36v3a.487.487 0 0 1-.14.36.487.487 0 0 1-.36.14h-3a.487.487 0 0 1-.36-.14A.487.487 0 0 1 5 19v-3zm1 .5v2h2v-2H6zm9-6.5c0-.146.047-.266.14-.36a.487.487 0 0 1 .36-.14h3c.146 0 .266.047.36.14.093.094.14.214.14.36v9a.487.487 0 0 1-.14.36.487.487 0 0 1-.36.14h-3a.487.487 0 0 1-.36-.14A.487.487 0 0 1 15 19v-9zm1 .5v8h2v-8h-2zm-9.344-.656A.445.445 0 0 1 6.5 9.5c0-.135.052-.25.156-.344l2.5-2.5A.445.445 0 0 1 9.5 6.5c.135 0 .25.052.344.156L12 8.796 15.797 5H14a.487.487 0 0 1-.36-.14.487.487 0 0 1-.14-.36c0-.146.047-.266.14-.36A.487.487 0 0 1 14 4h3c.02 0 .052.003.094.008a.25.25 0 0 1 .11.039.726.726 0 0 1 .25.25.25.25 0 0 1 .038.11.829.829 0 0 1 .008.093v3a.487.487 0 0 1-.14.36A.487.487 0 0 1 17 8a.487.487 0 0 1-.36-.14.487.487 0 0 1-.14-.36V5.703l-4.156 4.14a.38.38 0 0 1-.164.118A.51.51 0 0 1 12 10a.51.51 0 0 1-.18-.04.38.38 0 0 1-.164-.116L9.5 7.704l-2.156 2.14A.445.445 0 0 1 7 10a.445.445 0 0 1-.344-.156z"/>
    </g>
</svg>
